<svg width="719" height="720" viewBox="0 0 719 720" fill="none" xmlns="http://www.w3.org/2000/svg">
<path d="M67 311.867C68.2532 308.752 80.0331 313.084 85.4039 310.506C90.7747 307.892 98.6519 308.931 104.452 311.222C110.253 313.478 119.956 304.347 128.872 305.028C137.787 305.708 152.038 307.57 151.644 311.294C151.214 315.017 147.705 321.033 136.964 319.493C126.222 317.989 119.777 319.601 117.092 321.355C114.406 323.109 98.0432 325.115 88.34 321.212C78.5651 317.345 67.3939 318.061 67 311.867Z" fill="white" stroke="black" stroke-width="0.381506" stroke-miterlimit="10" stroke-linecap="round" stroke-linejoin="round"/>
<g style="mix-blend-mode:multiply">
<path d="M67.5376 311.865C67.9673 318.023 79.1385 317.343 88.8417 321.245C98.5808 325.148 114.908 323.143 117.593 321.389C120.279 319.634 126.688 317.987 137.465 319.527C148.207 321.031 151.752 315.015 152.145 311.327C145.414 314.944 130.877 310.79 124.253 313.512C117.629 316.233 113.261 318.238 102.269 315.517C91.2765 312.795 87.3737 315.767 85.0106 315.767C82.6474 315.767 67.5376 311.865 67.5376 311.865Z" fill="#E3EEFE"/>
</g>
<path d="M534.719 195.47V182.22" stroke="black" stroke-width="0.383955" stroke-miterlimit="10" stroke-linecap="round" stroke-linejoin="round"/>
<path d="M548.889 124.353C550.425 124.078 552.014 123.929 553.624 123.929C569.118 123.929 581.668 137.243 581.668 153.663C581.668 170.082 569.107 183.396 553.624 183.396L544.696 184.032C528.873 184.032 516.037 170.898 516.037 154.701C516.037 142.808 522.942 132.579 532.876 127.968L548.889 124.353Z" fill="#039503" stroke="black" stroke-width="0.383955" stroke-miterlimit="10" stroke-linecap="round" stroke-linejoin="round"/>
<path d="M533.514 181.065C533.514 181.065 534.965 177.81 539.731 178.298C539.731 178.298 544.592 181.309 548.86 181.383C548.86 181.383 548.924 182.517 546.403 183.28C543.883 184.033 535.823 182.358 533.514 181.065Z" fill="#C3F53C" stroke="black" stroke-width="0.383955" stroke-miterlimit="10" stroke-linecap="round" stroke-linejoin="round"/>
<path d="M553.724 181.064C567.949 181.064 579.48 168.682 579.48 153.408C579.48 138.135 567.949 125.753 553.724 125.753C539.499 125.753 527.967 138.135 527.967 153.408C527.967 168.682 539.499 181.064 553.724 181.064Z" stroke="black" stroke-width="0.383955" stroke-miterlimit="10" stroke-linecap="round" stroke-linejoin="round"/>
<path d="M538.428 156.516L564.831 170.031C564.831 170.031 571.704 167.455 573.918 160.692C576.131 153.929 573.79 151.47 573.06 150.982C573.06 150.982 574.045 140.541 567.044 139.799C567.044 139.799 564.587 131.807 558.815 133.778C558.815 133.778 553.901 128.372 550.586 132.793C550.586 132.793 546.53 130.821 544.083 134.764C544.073 134.764 532.772 139.799 538.428 156.516Z" fill="#C3F53C" stroke="black" stroke-width="0.383955" stroke-miterlimit="10" stroke-linecap="round" stroke-linejoin="round"/>
<path d="M534.721 195.469C534.721 195.469 539.031 193.551 543.426 193.551C544.771 193.604 546.169 193.71 547.599 193.858C554.229 194.568 560.012 196.19 564.82 198.056C564.809 200.388 564.799 202.72 564.788 205.052C564.788 205.189 564.756 205.507 564.555 205.826C564.375 206.112 564.131 206.26 564.015 206.334C562.532 206.981 561.05 207.628 559.577 208.274C559.101 208.327 558.571 208.37 557.989 208.37C557.173 208.37 556.453 208.295 555.839 208.189L536.839 204.935C536.839 204.935 535.388 204.458 534.71 203.207V195.469H534.721Z" fill="#337F59" stroke="black" stroke-width="0.383955" stroke-miterlimit="10" stroke-linecap="round" stroke-linejoin="round"/>
<path d="M536.839 203.441L542.611 202.466" stroke="black" stroke-width="0.383955" stroke-miterlimit="10" stroke-linecap="round" stroke-linejoin="round"/>
<path d="M545.79 202.466C549.189 202.879 552.716 203.388 556.37 204.034C558.711 204.448 560.988 204.882 563.19 205.349" stroke="black" stroke-width="0.383955" stroke-miterlimit="10" stroke-linecap="round" stroke-linejoin="round"/>
<path d="M551.079 202.846C551.079 189.564 551.079 176.272 551.079 162.99C551.079 162.99 560.981 149.178 558.81 133.776" stroke="black" stroke-width="0.383955" stroke-miterlimit="10" stroke-linecap="round" stroke-linejoin="round"/>
<path d="M557.841 204.29C557.841 191.676 557.841 179.061 557.841 166.447C557.841 166.447 568.061 157.649 567.034 139.788" stroke="black" stroke-width="0.383955" stroke-miterlimit="10" stroke-linecap="round" stroke-linejoin="round"/>
<path d="M564.822 170.03V198.067" stroke="black" stroke-width="0.383955" stroke-miterlimit="10" stroke-linecap="round" stroke-linejoin="round"/>
<path d="M544.513 136.109C544.513 136.109 544.989 151.363 538.433 156.515V194.241" stroke="black" stroke-width="0.383955" stroke-miterlimit="10" stroke-linecap="round" stroke-linejoin="round"/>
<path d="M550.584 132.791C550.584 132.791 554.206 147.08 544.505 159.62V201.808" stroke="black" stroke-width="0.383955" stroke-miterlimit="10" stroke-linecap="round" stroke-linejoin="round"/>
<path d="M573.055 150.982C573.055 150.982 572.409 163.511 563.449 169.331" stroke="black" stroke-width="0.383955" stroke-miterlimit="10" stroke-linecap="round" stroke-linejoin="round"/>
<path d="M541.467 183.862V193.551" stroke="black" stroke-width="0.383955" stroke-miterlimit="10" stroke-linecap="round" stroke-linejoin="round"/>
<path d="M547.881 183.82V193.869" stroke="black" stroke-width="0.383955" stroke-miterlimit="10" stroke-linecap="round" stroke-linejoin="round"/>
<path d="M555.384 183.354V195.174" stroke="black" stroke-width="0.383955" stroke-miterlimit="10" stroke-linecap="round" stroke-linejoin="round"/>
<path d="M560.068 182.623V196.424" stroke="black" stroke-width="0.383955" stroke-miterlimit="10" stroke-linecap="round" stroke-linejoin="round"/>
<g style="mix-blend-mode:multiply">
<path d="M577.679 168.991C577.107 168.631 576.546 168.26 575.974 167.899C575.54 168.62 567.745 181.075 553.723 181.065C544 181.054 537.487 175.054 536.301 173.92C531.535 169.362 529.798 164.147 529.152 161.751C526.303 163.129 523.02 164.316 519.303 165.016C518.847 165.101 518.392 165.175 517.947 165.249C519.112 168.26 521.866 174.016 527.871 178.478C530.317 180.301 532.721 181.467 534.723 182.231C536.428 182.877 538.578 183.503 541.109 183.831C542.412 184.001 543.619 184.065 544.71 184.065C546.818 183.937 548.914 183.81 551.022 183.683C552.621 183.63 554.369 183.503 556.212 183.269C557.578 183.1 558.859 182.877 560.067 182.644C562.99 181.838 568.221 179.93 572.924 175.256C575.127 173.062 576.641 170.836 577.679 168.991Z" fill="#DBDBDB"/>
</g>
<g style="mix-blend-mode:multiply">
<path d="M563.192 205.338C559.453 204.469 556.361 203.928 554.168 203.589C550.673 203.049 545.791 202.455 545.791 202.455C545.791 202.455 544.933 202.296 544.054 202.307C543.281 202.307 542.497 202.434 542.497 202.434L535.052 203.706L536.471 204.882C536.471 204.882 543.588 206.091 556.837 208.338C557.748 208.328 558.669 208.306 559.58 208.296C561.063 207.649 562.546 207.003 564.018 206.356C564.039 206.282 564.081 206.027 563.944 205.784C563.711 205.359 563.213 205.338 563.192 205.338Z" fill="#DBDBDB"/>
</g>
<path d="M159.289 273.105C159.289 273.105 157.743 270.943 160.211 269.088C162.679 267.233 177.506 256.42 197.882 254.565C197.882 254.565 199.121 254.724 199.429 255.647C199.429 255.647 200.202 254.565 201.896 254.565C201.896 254.565 221.044 262.908 229.994 275.893C229.994 275.893 229.994 277.282 228.299 277.282C228.299 277.282 220.112 303.241 198.189 321.314C198.189 321.314 204.523 322.862 206.683 325.491C206.683 325.491 198.952 344.19 194.398 352.065C194.398 352.065 189.081 345.419 181.827 325.491C181.827 325.491 186.614 321.94 190.628 321.007C190.628 321.007 169.785 303.315 159.289 273.105Z" fill="#337F59" stroke="black" stroke-width="0.383955" stroke-miterlimit="10" stroke-linecap="round" stroke-linejoin="round"/>
<path d="M163.853 284.267C163.853 284.267 171.14 298.514 175.768 304.291L176.234 303.316C176.234 303.316 176.234 302.341 177.473 301.514C177.473 301.514 185.173 296.553 194.408 295.175C194.408 295.175 195.276 295.037 196.844 295.864L197.839 296.086C198.559 295.705 199.28 295.726 199.28 295.726C199.28 295.726 208.123 299.966 211.671 303.316C211.671 303.316 212.719 304.132 212.772 305.033H213.503C213.503 305.033 218.089 299.171 224.051 287.522C224.719 286.218 222.516 284.967 222.516 284.967C212.465 274.218 201.302 271.325 201.302 271.325C200.053 271.187 198.655 271.738 198.655 271.738C197.384 270.636 195.658 270.773 195.658 270.773C182.165 273.392 168.121 280.282 166.056 281.522C163.991 282.762 163.853 284.267 163.853 284.267Z" fill="#68DD68" stroke="black" stroke-width="0.383955" stroke-miterlimit="10" stroke-linecap="round" stroke-linejoin="round"/>
<path d="M198.646 257.416C198.646 257.416 177.348 259.123 160.561 272.818" stroke="black" stroke-width="0.383955" stroke-miterlimit="10" stroke-linecap="round" stroke-linejoin="round"/>
<path d="M201.286 257.416C201.286 257.416 212.395 260.575 228.292 277.281C228.292 277.281 218.644 302.371 206.676 325.49" stroke="black" stroke-width="0.383955" stroke-miterlimit="10" stroke-linecap="round" stroke-linejoin="round"/>
<path d="M199.277 258.816C199.277 258.816 197.625 298.704 195.782 320.583C195.782 320.583 195.411 343.5 194.416 352.065" stroke="black" stroke-width="0.383955" stroke-miterlimit="10" stroke-linecap="round" stroke-linejoin="round"/>
<path d="M190.632 321.007C190.632 321.007 194.127 320.265 195.779 320.583L198.194 321.315" stroke="black" stroke-width="0.383955" stroke-miterlimit="10" stroke-linecap="round" stroke-linejoin="round"/>
<path d="M185.525 334.978C185.525 334.978 189.497 332.403 195.481 332.487C195.481 332.487 197.768 332.466 202.301 335.699" stroke="black" stroke-width="0.383955" stroke-miterlimit="10" stroke-linecap="round" stroke-linejoin="round"/>
<path d="M159.296 273.104C159.296 273.104 171.231 304.417 181.833 325.49" stroke="black" stroke-width="0.383955" stroke-miterlimit="10" stroke-linecap="round" stroke-linejoin="round"/>
<g style="mix-blend-mode:multiply">
<path d="M220.651 293.988C217.855 297.666 214.635 301.535 210.907 305.478C208.704 307.81 206.522 309.952 204.394 311.934C203.758 311.33 202.826 310.588 201.577 309.941C200.051 309.157 198.643 308.828 197.679 308.69C198.389 303.093 198.442 298.631 198.357 295.525C198.272 292.61 197.944 286.737 197.944 286.737C196.091 298.885 195.699 300.793 194.989 304.1C194.608 305.892 194.28 307.312 194.099 308.086C192.649 308.16 190.827 308.372 188.793 308.913C186.908 309.422 185.33 310.079 184.091 310.694C182.926 310.142 181.581 309.411 180.183 308.425C178.446 307.217 177.091 305.955 176.063 304.853C177.122 306.178 178.224 307.503 179.357 308.839C183.117 313.259 186.898 317.308 190.626 321.008C191.664 320.658 193.528 320.191 195.773 320.584C196.737 320.753 197.552 321.029 198.188 321.315C200.2 319.64 202.244 317.796 204.288 315.75C211.733 308.372 216.954 300.698 220.651 293.988Z" fill="#DBDBDB"/>
</g>
<g style="mix-blend-mode:multiply">
<path d="M203.929 331.979C202.182 335.753 199.979 339.781 197.194 343.904C196.399 345.081 195.594 346.215 194.779 347.286C193.201 345.664 191.506 343.724 189.844 341.456C187.524 338.297 185.819 335.276 184.569 332.657C185.512 335.106 186.603 337.671 187.874 340.321C189.981 344.742 192.216 348.653 194.408 352.077C195.573 350.042 196.738 347.89 197.871 345.643C200.275 340.883 202.267 336.293 203.929 331.979Z" fill="#DBDBDB"/>
</g>
<path d="M541.619 364.563C541.619 364.563 530.711 313.089 474.855 317.742C474.855 317.742 434.885 325.989 439.641 364.563C439.641 364.563 443.919 380.548 439.641 386.198C439.641 386.198 415.049 385.636 407.159 402.575C407.159 402.575 400.952 373.775 362.582 386.76C324.212 399.745 323.65 421.147 323.65 421.147C323.65 421.147 296.008 402.565 272.306 435.881C272.306 435.881 260.402 438.139 255.064 435.881C249.737 433.623 224.34 441.584 242.959 447.488C242.959 447.488 215.359 448.877 219.289 453.954C219.289 453.954 220.295 456.01 228.206 456.106H586.81C586.81 456.106 611.413 450.859 612.684 436.983C613.944 423.108 595.664 421.147 595.664 421.147C595.664 421.147 595.368 417.914 592.826 417.161C592.826 417.161 600.441 401.165 586.058 399.469C586.058 399.469 601.712 385.276 577.596 369.397C553.481 353.518 541.619 364.563 541.619 364.563Z" fill="white" stroke="black" stroke-width="0.383955" stroke-miterlimit="10" stroke-linecap="round" stroke-linejoin="round"/>
<path d="M171.24 335.2C171.24 335.2 167.374 310.862 138.387 308.975C109.4 307.088 98.1101 350.422 119.186 358.7C119.186 358.7 92.8359 372.639 128.22 382.434H333.829C333.829 382.434 345.204 378.671 333.829 375.279C322.455 371.887 291.964 373.392 291.964 373.392C291.964 373.392 285.186 369.247 292.716 365.484C300.246 361.721 290.46 348.535 271.259 350.04C252.058 351.545 254.324 366.99 234.371 351.545C234.371 351.545 213.815 329.698 175.539 343.638C175.529 343.648 179.246 334.299 171.24 335.2Z" fill="white" stroke="black" stroke-width="0.383955" stroke-miterlimit="10" stroke-linecap="round" stroke-linejoin="round"/>
<g style="mix-blend-mode:multiply">
<path d="M541.616 364.563C540.207 358.924 537.221 350.052 530.443 341.063C525.899 335.042 521.049 330.802 517.204 327.971C520.138 331.628 523.198 335.996 526.079 341.126C532.105 351.854 535.103 361.998 536.67 369.736C537.443 368.506 538.545 367.054 540.133 365.697C540.642 365.263 541.139 364.892 541.616 364.563Z" fill="#E3EEFE"/>
</g>
<g style="mix-blend-mode:multiply">
<path d="M595.676 421.145C595.655 420.742 595.549 419.756 594.871 418.771C594.151 417.742 593.219 417.308 592.838 417.149C593.823 415.071 594.289 413.248 594.522 411.976C594.84 410.248 595.136 408.647 594.702 406.623C594.511 405.743 594.109 403.93 592.679 402.319C590.296 399.627 586.844 399.468 586.07 399.446C587.119 398.45 588.708 396.68 589.798 394.019C590.508 392.302 591.419 389.207 590.762 385.518C590.296 382.889 589.237 381.098 588.242 379.455C587.172 377.695 585.191 374.928 581.718 372.353C582.321 373.508 586.791 382.338 582.575 390.341C581.389 392.578 579.822 394.199 578.424 395.323C578.614 395.376 579.938 395.8 580.51 397.157C580.976 398.259 580.764 399.563 579.97 400.528C580.394 400.793 586.409 404.619 586.325 411.107C586.293 413.863 585.17 415.972 584.45 417.075C584.757 417.17 587.606 418.092 588.39 420.763C588.676 421.76 588.591 422.64 588.464 423.212C589.184 422.693 590.338 421.982 591.906 421.527C593.463 421.124 594.797 421.103 595.676 421.145Z" fill="#E3EEFE"/>
</g>
<g style="mix-blend-mode:multiply">
<path d="M609.051 426.914C607.356 427.55 605.333 428.588 603.469 430.348C598.047 435.5 599.339 441.839 593.916 446.524C592.667 447.605 590.887 448.739 588.324 449.492C467.515 449.492 346.695 449.492 225.886 449.492C221.735 450.319 218.896 451.697 218.939 452.926C218.96 453.414 219.447 454.326 220.22 454.803C220.464 454.951 220.76 455.046 221.332 455.216C222.285 455.502 223.037 455.64 223.196 455.672C225.134 456.022 227.951 456.106 228.227 456.117C347.765 456.117 467.293 456.117 586.831 456.117C590.517 455.258 593.471 454.209 595.568 453.372C599.349 451.856 603.374 450.191 607.303 446.566C608.892 445.093 610.332 443.747 611.423 441.436C611.942 440.333 613.403 437.121 612.503 433.083C611.783 429.871 609.951 427.804 609.051 426.914Z" fill="#E3EEFE"/>
</g>
<g style="mix-blend-mode:multiply">
<path d="M113.645 339.653C112.405 334.226 112.035 325.142 112.035 325.142C112.035 325.142 110.679 327.283 109.959 329.837C109.832 330.293 109.895 330.155 109.493 332.095C109.038 334.321 108.688 335.816 108.603 336.187C107.375 341.773 109.271 347.444 109.271 347.444C109.864 349.236 111.399 353.624 115.678 356.762C117.034 357.758 118.305 358.362 119.194 358.723C119.544 358.278 120.126 357.652 120.995 357.09C121.916 356.507 122.784 356.253 123.346 356.126C117.076 349.851 114.651 344.042 113.645 339.653Z" fill="#E3EEFE"/>
</g>
<g style="mix-blend-mode:multiply">
<path d="M338.339 379.827C270.728 379.075 203.105 378.322 135.494 377.58C126.735 378.237 118.898 375.132 115.456 369.121C114.683 367.764 113.793 365.676 113.581 362.772C110.764 364.913 109.282 368.072 109.853 370.976C110.15 372.46 110.913 373.563 111.527 374.252C113.412 376.16 115.551 377.75 117.934 378.958C119.226 379.615 120.455 379.997 122.605 380.728C124.892 381.513 126.841 382.064 128.218 382.446C196.751 382.446 265.284 382.446 333.828 382.446C334.791 382.181 336.062 381.682 337.312 380.728C337.704 380.432 338.043 380.124 338.339 379.827Z" fill="#E3EEFE"/>
</g>
<path d="M517.717 458.448C539.225 458.448 556.66 445.468 556.66 429.456C556.66 413.445 539.225 400.465 517.717 400.465C496.21 400.465 478.775 413.445 478.775 429.456C478.775 445.468 496.21 458.448 517.717 458.448Z" fill="#C3F53C" stroke="black" stroke-width="0.383955" stroke-miterlimit="10" stroke-linecap="round" stroke-linejoin="round"/>
<path d="M517.718 400.465C517.718 400.465 489.049 420.966 517.718 458.448C517.718 458.448 544.958 423.976 517.718 400.465Z" stroke="black" stroke-width="0.383955" stroke-miterlimit="10" stroke-linecap="round" stroke-linejoin="round"/>
<path d="M517.724 458.448C517.724 458.448 487.646 453.975 487.646 429.456C487.646 404.938 517.724 400.465 517.724 400.465C517.724 400.465 549.158 408.044 549.158 429.456C549.158 450.869 517.724 458.448 517.724 458.448Z" stroke="black" stroke-width="0.383955" stroke-miterlimit="10" stroke-linecap="round" stroke-linejoin="round"/>
<path d="M480.838 420.138C480.838 420.138 489.236 408.563 517.397 408.563C545.558 408.563 554.603 420.138 554.603 420.138" stroke="black" stroke-width="0.383955" stroke-miterlimit="10" stroke-linecap="round" stroke-linejoin="round"/>
<path d="M478.789 429.458C478.789 429.458 488.215 421.168 518.409 421.168C548.603 421.168 556.599 431.196 556.599 431.196" stroke="black" stroke-width="0.383955" stroke-miterlimit="10" stroke-linecap="round" stroke-linejoin="round"/>
<path d="M465.757 441.752C465.757 441.752 461.997 439.398 464.189 448.493C466.381 457.588 493.473 503.031 508.035 507.419C508.035 507.419 509.189 509.253 511.541 508.766C511.541 508.766 513.277 510.345 515.417 509.296C515.417 509.296 518.043 511.151 520.426 509.094C520.426 509.094 523.985 510.833 526.77 507.07C526.77 507.07 554.518 484.142 569.504 448.313C569.504 448.313 571.739 440.914 567.047 441.476C567.047 441.476 565.924 425.692 547.581 435.773C547.581 435.773 542.434 414.202 516.783 432.413C516.783 432.413 493.208 414.944 484.481 434.437C484.471 434.427 467.186 426.901 465.757 441.752Z" fill="#669F83" stroke="black" stroke-width="0.383955" stroke-miterlimit="10" stroke-linecap="round" stroke-linejoin="round"/>
<path d="M480.552 478.345C480.552 478.345 480.955 476.723 483.242 475.588C483.242 475.588 487.362 469.78 495.39 471.232C495.39 471.232 503.841 463.261 519.558 468.762C519.558 468.762 529.079 464.342 538.505 471.232C538.505 471.232 546.925 470.522 549.975 475.217C549.975 475.217 552.199 475.822 553.237 477.401C553.237 477.401 547.677 485.839 540.528 493.386C540.528 493.386 539.829 491.457 537.838 490.694C537.838 490.694 536.037 488.436 530.265 489.231C530.265 489.231 525.478 485.478 519.272 487.821C519.272 487.821 506.267 484.334 503.28 489.093C503.28 489.093 495.814 487.376 494.257 491.012C494.257 491.012 491.63 491.838 491.662 493.397C491.651 493.386 486.451 487.609 480.552 478.345Z" fill="#68DD68" stroke="black" stroke-width="0.383955" stroke-miterlimit="10" stroke-linecap="round" stroke-linejoin="round"/>
<path d="M484.646 435.849C484.646 435.849 494.283 480.496 512.87 504.516C512.87 504.516 516.058 506.276 517.731 504.516C517.731 504.516 521.989 482.023 517.413 434.778" stroke="black" stroke-width="0.383955" stroke-miterlimit="10" stroke-linecap="round" stroke-linejoin="round"/>
<path d="M466.073 443.333C466.073 443.333 480.741 477.953 500.662 498.199C500.662 498.199 505.142 502.832 508.076 504.231" stroke="black" stroke-width="0.383955" stroke-miterlimit="10" stroke-linecap="round" stroke-linejoin="round"/>
<path d="M547.672 437.174C547.672 437.174 543.362 472.811 520.973 504.23C520.973 504.23 518.95 506.403 517.721 504.527" stroke="black" stroke-width="0.383955" stroke-miterlimit="10" stroke-linecap="round" stroke-linejoin="round"/>
<path d="M509.868 505.503C509.868 505.503 512.547 506.626 513.574 504.845" stroke="black" stroke-width="0.383955" stroke-miterlimit="10" stroke-linecap="round" stroke-linejoin="round"/>
<path d="M566.723 442.76C566.723 442.76 556.979 475.557 523.576 504.845C523.576 504.845 521.468 506.626 519.668 505.131" stroke="black" stroke-width="0.383955" stroke-miterlimit="10" stroke-linecap="round" stroke-linejoin="round"/>
<path d="M508.029 507.421C508.029 507.421 511.99 509.202 516.078 505.291" stroke="black" stroke-width="0.383955" stroke-miterlimit="10" stroke-linecap="round" stroke-linejoin="round"/>
<path d="M511.527 508.767C511.527 508.767 516.187 507.718 517.215 505.344" stroke="black" stroke-width="0.383955" stroke-miterlimit="10" stroke-linecap="round" stroke-linejoin="round"/>
<path d="M515.415 509.296C515.415 509.296 517.702 507.865 517.734 505.353" stroke="black" stroke-width="0.383955" stroke-miterlimit="10" stroke-linecap="round" stroke-linejoin="round"/>
<path d="M518.664 505.724C518.664 505.724 518.717 508.152 520.412 509.085" stroke="black" stroke-width="0.383955" stroke-miterlimit="10" stroke-linecap="round" stroke-linejoin="round"/>
<path d="M520.113 505.437C520.113 505.437 521.638 508.829 526.753 507.07" stroke="black" stroke-width="0.383955" stroke-miterlimit="10" stroke-linecap="round" stroke-linejoin="round"/>
<g style="mix-blend-mode:multiply">
<path d="M569.128 442.007C568.821 441.721 568.228 441.392 567.031 441.477C565.972 438.318 565.295 436.293 565.295 436.293C561.079 447.286 560.984 447.529 560.963 447.561C558.146 454.822 550.859 473.553 534.952 489.252C532.167 491.997 529.762 494.022 528.439 495.092C534.422 485.817 541.317 472.715 545.691 456.052C547.714 448.335 548.858 441.159 549.461 434.799C551.802 433.993 554.153 433.177 556.494 432.371C556.97 427.686 556.059 424.082 555.382 422.057C553.083 415.263 548.296 411.362 546.92 410.27C543.965 407.927 539.252 405.299 539.188 405.256C546.136 412.072 548.911 416.641 548.911 416.641C550.976 420.033 552.977 425.237 552.702 433.145C549.228 434.905 547.555 435.753 547.555 435.753L545.988 431.979C541.677 455.988 536.721 470.012 536.721 470.012C534.041 477.591 529.635 487.715 521.999 499.014C521.247 498.951 520.485 498.887 519.733 498.824C520.845 489.093 520.686 482.754 520.315 478.694C520.199 477.422 519.468 469.906 519.468 469.896C517.774 485.807 517.477 488.202 516.948 492.357C516.588 495.177 516.28 497.446 516.111 498.739C515.814 498.887 515.242 499.131 514.501 499.131C513.95 499.131 513.506 499.014 513.22 498.908C509.227 493.301 506.484 488.52 504.768 485.33C500.288 476.966 497.333 469.111 493.097 461.225C492.769 460.621 489.856 455.193 489.846 455.193C489.846 455.193 491.604 462.232 491.911 463.461C493.214 468.645 495.66 478.291 500.775 488.478C502.385 491.679 504.916 496.226 508.697 501.389C508.655 501.505 508.613 501.622 508.56 501.739C508.051 501.368 507.575 500.954 507.13 500.583C505.891 499.566 504.715 498.484 503.582 497.35C500.532 494.287 497.725 490.534 497.725 490.534C484.635 472.874 477.137 456.306 477.137 456.306C476.925 455.851 476.66 455.204 468.463 434.99C468.463 434.99 467.478 436.251 467.393 436.368C466.864 437.057 466.228 438.477 465.741 441.699C465.275 441.498 464.693 441.328 464.227 441.583C462.585 442.494 464.078 448.028 464.396 449.247C465.201 452.257 466.26 454.441 470.676 462.274C472.752 465.952 473.79 467.797 474.87 469.578C477.55 474.03 479.965 477.655 481.86 480.422C481.86 480.422 491.858 494.954 500.511 502.767C501.136 503.329 502.523 504.569 504.62 505.777C505.954 506.54 507.141 507.049 508.009 507.367C508.136 507.579 508.634 508.364 509.651 508.703C510.508 508.989 511.25 508.798 511.504 508.724C511.748 508.947 512.245 509.349 512.997 509.54C514.162 509.826 515.105 509.392 515.38 509.254C515.634 509.434 516.884 510.282 518.515 509.975C519.447 509.795 520.082 509.318 520.39 509.053C520.729 509.233 521.438 509.561 522.402 509.561C523.472 509.551 524.245 509.137 524.562 508.936C524.891 508.766 525.283 508.523 525.685 508.173C526.162 507.77 526.5 507.367 526.733 507.028C527.369 506.487 528.259 505.714 529.296 504.77C530.599 503.594 534.814 499.746 540.491 493.343C548.021 484.853 553.062 477.602 555.18 474.475C556.536 472.472 558.04 470.224 559.904 467.087C565.432 457.759 569.467 448.271 569.467 448.271C569.489 448.314 570.834 443.554 569.128 442.007Z" fill="#DBDBDB"/>
</g>
<g style="mix-blend-mode:multiply">
<path d="M484.465 434.428C482.961 433.156 482.686 432.849 482.686 432.849C482.252 432.361 481.87 431.746 481.479 430.633C480.811 428.746 480.483 427.686 480.229 421.602C480.229 421.602 479.17 424.464 478.873 427.485C478.63 430.008 478.916 432.7 478.916 432.7C478.916 432.7 480.049 432.997 480.663 433.167C480.663 433.156 481.5 433.389 484.465 434.428Z" fill="#DBDBDB"/>
</g>
<path d="M242.689 170.061C242.689 170.061 205.59 213.872 274.96 253.972L280.89 261.774L274.96 273.656C274.96 273.656 271.295 274.653 270.586 276.084L311.466 380.58L396.425 378.046L438.248 275.321C438.248 275.321 436.331 272.734 432.699 272.003L426.885 259.452L432.688 253.919C432.688 253.919 497.07 227.09 468.888 172.054C468.888 172.054 465.573 146.338 448.437 143.296C448.437 143.296 428.261 120.622 414.451 131.403C414.451 131.403 398.152 115.916 380.74 123.94C380.74 123.94 364.717 110.393 350.62 124.216C350.62 124.216 334.872 112.322 314.972 126.155C314.972 126.155 298.948 119.244 284.851 135.007C284.862 134.996 253.556 134.604 242.689 170.061Z" fill="#C3F53C" stroke="black" stroke-width="0.383955" stroke-miterlimit="10" stroke-linecap="round" stroke-linejoin="round"/>
<path d="M354.36 435.542C334.216 435.542 317.885 438.659 317.885 442.496V474.996H390.845V442.496C390.834 438.659 374.503 435.542 354.36 435.542Z" fill="#C3F53C" stroke="black" stroke-width="0.383955" stroke-miterlimit="10" stroke-linecap="round" stroke-linejoin="round"/>
<path d="M354.36 481.959C374.504 481.959 390.835 478.845 390.835 475.005C390.835 471.165 374.504 468.051 354.36 468.051C334.215 468.051 317.885 471.165 317.885 475.005C317.885 478.845 334.215 481.959 354.36 481.959Z" fill="#A1B432" stroke="black" stroke-width="0.383955" stroke-miterlimit="10" stroke-linecap="round" stroke-linejoin="round"/>
<path d="M354.363 478.314C369.501 478.314 381.772 477.004 381.772 475.388C381.772 473.772 369.501 472.462 354.363 472.462C339.225 472.462 326.954 473.772 326.954 475.388C326.954 477.004 339.225 478.314 354.363 478.314Z" fill="#7F9126" stroke="black" stroke-width="0.383955" stroke-miterlimit="10" stroke-linecap="round" stroke-linejoin="round"/>
<path d="M317.876 466.188C317.876 462.34 334.207 459.234 354.351 459.234C356.098 459.234 357.824 459.255 359.498 459.297C359.498 459.297 361.319 459.213 361.648 458.184V448.167C361.648 448.167 361.51 446.62 359.498 446.577C357.814 446.545 356.098 446.514 354.351 446.514C334.207 446.514 317.876 449.63 317.876 453.467V466.188Z" fill="#04C604" stroke="black" stroke-width="0.383955" stroke-miterlimit="10" stroke-linecap="round" stroke-linejoin="round"/>
<path d="M432.776 253.919C432.776 246.934 397.445 241.263 353.864 241.263C310.283 241.263 274.952 246.923 274.952 253.919V273.657C274.952 273.657 276.838 273.169 277.748 273.243L276.785 269.989C276.785 269.989 279.57 266.332 292.088 267.774L291.082 265.325C291.082 265.325 301.895 261.721 312.105 263.724C312.105 263.724 323.712 258.912 339.927 261.922C339.927 261.922 353.536 257.311 368.956 261.922C368.956 261.922 389.577 258.52 395.984 264.53C395.984 264.53 413.596 261.922 418.002 267.731C418.002 267.731 426.814 268.378 432.194 270.89L432.702 271.992L432.776 253.919Z" fill="#FFAA05" stroke="black" stroke-width="0.383955" stroke-miterlimit="10" stroke-linecap="round" stroke-linejoin="round"/>
<path d="M315.015 378.163C315.015 378.163 311.53 378.386 311.456 380.569C311.456 380.569 312.272 381.46 313.638 382.021C313.807 382.17 314.083 382.382 314.432 382.594C316.445 383.845 318.605 383.728 319.516 383.664C320.024 383.633 320.744 383.548 321.602 383.304C322.397 383.601 323.276 383.887 324.229 384.141C325.786 384.555 327.84 384.958 329.81 384.915C329.81 384.915 336.323 387.417 343.006 385.477C343.006 385.477 350.091 388.138 357.166 385.795C357.166 385.795 365.374 388.297 371.008 384.99C371.008 384.99 385.412 386.463 383.887 382.445C383.887 382.445 390.4 382.891 392.169 380.961C392.169 380.961 396.754 380.071 396.416 378.025C396.416 378.025 395.452 376.35 393.302 376.35C393.302 376.35 392.921 375.089 384.469 375.089C384.469 375.089 380.932 372.693 372.226 373.192C372.226 373.192 367.174 371.294 359.602 371.93C359.602 371.93 353.036 370.033 345.082 371.803C345.082 371.803 338.643 370.287 332.966 372.566C332.966 372.566 327.035 371.559 321.729 374.845C321.729 374.856 314.75 375.873 315.015 378.163Z" fill="#7F9126" stroke="black" stroke-width="0.383955" stroke-miterlimit="10" stroke-linecap="round" stroke-linejoin="round"/>
<path d="M277.762 273.243L315.02 378.163" stroke="black" stroke-width="0.383955" stroke-miterlimit="10" stroke-linecap="round" stroke-linejoin="round"/>
<path d="M321.733 374.856L292.1 267.784" stroke="black" stroke-width="0.383955" stroke-miterlimit="10" stroke-linecap="round" stroke-linejoin="round"/>
<path d="M345.085 371.826L339.938 261.924" stroke="black" stroke-width="0.383955" stroke-miterlimit="10" stroke-linecap="round" stroke-linejoin="round"/>
<path d="M368.959 261.924L359.607 371.953" stroke="black" stroke-width="0.383955" stroke-miterlimit="10" stroke-linecap="round" stroke-linejoin="round"/>
<path d="M395.986 264.531L372.231 373.214L365.474 435.542" stroke="black" stroke-width="0.383955" stroke-miterlimit="10" stroke-linecap="round" stroke-linejoin="round"/>
<path d="M418.004 267.731L384.473 375.11" stroke="black" stroke-width="0.383955" stroke-miterlimit="10" stroke-linecap="round" stroke-linejoin="round"/>
<path d="M393.317 376.371L432.704 272.002" stroke="black" stroke-width="0.383955" stroke-miterlimit="10" stroke-linecap="round" stroke-linejoin="round"/>
<path d="M311.456 380.569L326.22 438.075" stroke="black" stroke-width="0.383955" stroke-miterlimit="10" stroke-linecap="round" stroke-linejoin="round"/>
<path d="M342.51 435.541L332.967 372.576L312.104 263.723" stroke="black" stroke-width="0.383955" stroke-miterlimit="10" stroke-linecap="round" stroke-linejoin="round"/>
<path d="M383.306 438.075L396.428 378.046" stroke="black" stroke-width="0.383955" stroke-miterlimit="10" stroke-linecap="round" stroke-linejoin="round"/>
<path d="M242.692 170.062C242.692 170.062 231.085 209.091 287.777 247.008" stroke="black" stroke-width="0.383955" stroke-miterlimit="10" stroke-linecap="round" stroke-linejoin="round"/>
<path d="M284.866 134.998C284.866 134.998 242.058 171.229 309.162 243.49" stroke="black" stroke-width="0.383955" stroke-miterlimit="10" stroke-linecap="round" stroke-linejoin="round"/>
<path d="M314.991 126.145C314.991 126.145 273.761 148.575 332.339 241.262" stroke="black" stroke-width="0.383955" stroke-miterlimit="10" stroke-linecap="round" stroke-linejoin="round"/>
<path d="M350.627 124.215C350.627 124.215 322.656 168.132 353.867 241.273" stroke="black" stroke-width="0.383955" stroke-miterlimit="10" stroke-linecap="round" stroke-linejoin="round"/>
<path d="M380.747 123.94C380.747 123.94 404.1 168.386 373.239 241.273" stroke="black" stroke-width="0.383955" stroke-miterlimit="10" stroke-linecap="round" stroke-linejoin="round"/>
<path d="M414.456 131.404C414.456 131.404 452.276 173.698 393.317 242.959" stroke="black" stroke-width="0.383955" stroke-miterlimit="10" stroke-linecap="round" stroke-linejoin="round"/>
<path d="M448.436 143.295C448.436 143.295 472.001 182.876 415.552 246.031" stroke="black" stroke-width="0.383955" stroke-miterlimit="10" stroke-linecap="round" stroke-linejoin="round"/>
<path d="M468.89 172.054C468.89 172.054 474.831 214.656 427.321 249.276" stroke="black" stroke-width="0.383955" stroke-miterlimit="10" stroke-linecap="round" stroke-linejoin="round"/>
<path d="M329.02 245.905C315.919 246.604 304.343 247.834 295.299 249.435V254.343C304.343 252.731 315.919 251.502 329.02 250.813V245.905Z" stroke="black" stroke-width="0.383955" stroke-miterlimit="10" stroke-linecap="round" stroke-linejoin="round"/>
<path d="M414.064 254.651C407.688 253.442 399.936 252.435 391.188 251.683" stroke="black" stroke-width="0.383955" stroke-miterlimit="10" stroke-linecap="round" stroke-linejoin="round"/>
<path d="M329.02 252.815C315.929 253.504 304.354 254.734 295.299 256.345V260.67C304.354 259.069 315.929 257.84 329.02 257.14V252.815Z" stroke="black" stroke-width="0.383955" stroke-miterlimit="10" stroke-linecap="round" stroke-linejoin="round"/>
<path d="M414.063 260.989C407.697 259.781 399.934 258.774 391.197 258.01" stroke="black" stroke-width="0.383955" stroke-miterlimit="10" stroke-linecap="round" stroke-linejoin="round"/>
<path d="M339.958 258.148C341.367 258.148 342.51 257.005 342.51 255.594C342.51 254.183 341.367 253.039 339.958 253.039C338.548 253.039 337.405 254.183 337.405 255.594C337.405 257.005 338.548 258.148 339.958 258.148Z" stroke="black" stroke-width="0.383955" stroke-miterlimit="10" stroke-linecap="round" stroke-linejoin="round"/>
<path d="M347.638 249.467C349.048 249.467 350.19 248.323 350.19 246.912C350.19 245.501 349.048 244.357 347.638 244.357C346.228 244.357 345.086 245.501 345.086 246.912C345.086 248.323 346.228 249.467 347.638 249.467Z" stroke="black" stroke-width="0.383955" stroke-miterlimit="10" stroke-linecap="round" stroke-linejoin="round"/>
<path d="M353.068 258.859C354.478 258.859 355.62 257.715 355.62 256.304C355.62 254.893 354.478 253.75 353.068 253.75C351.658 253.75 350.516 254.893 350.516 256.304C350.516 257.715 351.658 258.859 353.068 258.859Z" stroke="black" stroke-width="0.383955" stroke-miterlimit="10" stroke-linecap="round" stroke-linejoin="round"/>
<path d="M371.519 249.287C372.929 249.287 374.072 248.144 374.072 246.733C374.072 245.322 372.929 244.178 371.519 244.178C370.11 244.178 368.967 245.322 368.967 246.733C368.967 248.144 370.11 249.287 371.519 249.287Z" stroke="black" stroke-width="0.383955" stroke-miterlimit="10" stroke-linecap="round" stroke-linejoin="round"/>
<path d="M373.235 257.65C374.645 257.65 375.788 256.507 375.788 255.096C375.788 253.685 374.645 252.541 373.235 252.541C371.826 252.541 370.683 253.685 370.683 255.096C370.683 256.507 371.826 257.65 373.235 257.65Z" stroke="black" stroke-width="0.383955" stroke-miterlimit="10" stroke-linecap="round" stroke-linejoin="round"/>
<path d="M387.65 252.233C388.159 252.233 388.572 251.82 388.572 251.311C388.572 250.802 388.159 250.389 387.65 250.389C387.142 250.389 386.729 250.802 386.729 251.311C386.729 251.82 387.142 252.233 387.65 252.233Z" stroke="black" stroke-width="0.383955" stroke-miterlimit="10" stroke-linecap="round" stroke-linejoin="round"/>
<path d="M387.65 258.582C388.159 258.582 388.572 258.169 388.572 257.66C388.572 257.15 388.159 256.738 387.65 256.738C387.142 256.738 386.729 257.15 386.729 257.66C386.729 258.169 387.142 258.582 387.65 258.582Z" stroke="black" stroke-width="0.383955" stroke-miterlimit="10" stroke-linecap="round" stroke-linejoin="round"/>
<path d="M284.4 266.226C287.132 266.226 289.346 263.023 289.346 259.071C289.346 255.119 287.132 251.916 284.4 251.916C281.669 251.916 279.454 255.119 279.454 259.071C279.454 263.023 281.669 266.226 284.4 266.226Z" stroke="black" stroke-width="0.383955" stroke-miterlimit="10" stroke-linecap="round" stroke-linejoin="round"/>
<path d="M277.879 263.723L274.966 264.2" stroke="black" stroke-width="0.383955" stroke-miterlimit="10" stroke-linecap="round" stroke-linejoin="round"/>
<path d="M286.159 252.381L284.401 259.07H289.337" stroke="black" stroke-width="0.383955" stroke-miterlimit="10" stroke-linecap="round" stroke-linejoin="round"/>
<path d="M341.714 253.748L345.887 248.777" stroke="black" stroke-width="0.383955" stroke-miterlimit="10" stroke-linecap="round" stroke-linejoin="round"/>
<path d="M348.949 249.106L353.069 253.749L369.368 248.12" stroke="black" stroke-width="0.383955" stroke-miterlimit="10" stroke-linecap="round" stroke-linejoin="round"/>
<path d="M372.089 252.816L365.999 249.287" stroke="black" stroke-width="0.383955" stroke-miterlimit="10" stroke-linecap="round" stroke-linejoin="round"/>
<path d="M418.571 259.506L423.613 254.651L429.236 264.53L431.736 261.923L432.774 262.463" stroke="black" stroke-width="0.383955" stroke-miterlimit="10" stroke-linecap="round" stroke-linejoin="round"/>
<g style="mix-blend-mode:multiply">
<path d="M472.958 181.582C471.666 177.904 470.225 174.894 469.029 172.646C468.51 168.777 467.631 165.597 466.847 163.276C465.724 159.958 464.676 156.863 462.251 153.503C461.011 151.785 458.406 148.605 458.406 148.605C458.406 148.605 463.786 166.891 460.874 185.049C459.338 194.61 455.79 202.412 453.513 207.372C447.137 221.248 437.966 233.629 426.56 243.763C425.585 243.434 424.547 243.106 423.467 242.809C422.747 242.607 422.048 242.427 421.359 242.268C425.299 237.848 429.419 232.622 433.369 226.506C442.456 212.439 447.328 198.882 450.05 188.419C444.056 200.493 436.144 213.839 425.638 227.407C422.016 232.081 418.373 236.406 414.761 240.424C412.559 239.883 410.049 239.395 407.253 239.077C404.001 238.706 401.046 238.643 398.483 238.738C402.158 234.466 406.257 229.039 410.123 222.382C414.486 214.877 417.367 207.86 419.315 202.051C416.604 207.786 412.4 215.164 405.982 222.732C400.337 229.389 394.597 234.276 389.873 237.742C388.157 237.318 386.219 236.947 384.09 236.682C381.517 236.364 379.176 236.279 377.111 236.311C380.204 227.767 381.962 220.729 383.021 215.683C383.889 211.507 385.626 202.253 385.637 202.253C380.998 216.764 374.982 228.149 374.982 228.149C373.309 231.308 371.826 233.767 370.947 235.187C368.829 235.844 365.44 236.576 361.384 235.993C359.795 235.76 358.397 235.378 357.232 234.954C350.454 222.202 346.853 213.224 344.788 207.16C344.206 205.443 340.52 194.493 340.499 194.409C340.499 194.409 341.102 207.372 343.983 218.916C344.873 222.478 346.472 227.905 349.48 234.392C347.16 234.095 344.587 233.883 341.812 233.82C338.359 233.746 335.203 233.915 332.407 234.212C322.24 218.216 316.521 203.684 313.185 193.2C307.646 175.773 302.467 158.718 308.589 139.754C310.506 133.818 313.037 129.218 314.986 126.133C313.852 126.854 312.2 128.009 310.463 129.674C301.62 138.122 300.519 150.047 299.978 157.001C299.11 168.057 301.09 176.886 302.849 183.353C306.1 195.352 312.497 213.775 325.947 235.219C324.856 235.495 323.723 235.749 322.558 235.982C317.93 236.915 313.577 237.371 309.595 237.519C299.364 226.59 289.917 214.771 283.139 201.362C276.912 189.034 270.653 173.388 275.26 156.895C278.638 144.81 287.916 133.002 287.354 132.663C287.089 132.504 284.865 134.995 284.865 134.995C284.865 134.995 279.517 140.274 279.337 140.443C275.863 143.878 270.684 154.457 270.07 168.661C269.022 192.84 281.847 211.729 288.678 221.789C293.815 229.347 298.898 235.007 302.531 238.728C298.633 239.47 294.768 240.328 290.923 241.303C279.337 234.71 269.117 225.721 261.237 214.93C255.095 206.514 242.767 189.426 246.145 171.756C246.929 167.664 249.587 158.124 254.48 151.404C254.48 151.404 254.84 150.906 259.913 144.047C259.913 144.047 256.26 147.174 254.968 148.362C250.233 152.697 247.745 157.88 245.944 161.622C244.959 163.668 243.741 166.52 242.693 170.06C241.327 171.798 239.505 174.353 237.81 177.681C237.535 178.222 232.282 188.801 232.695 200.822C233.553 225.753 258.293 243.01 266.395 248.66C269.901 251.109 272.94 252.868 274.974 253.971C274.974 254.755 274.974 255.529 274.974 256.313C295.509 251.681 322.177 247.589 353.398 247.685C385.16 247.77 412.209 252.147 432.925 257.023C432.85 255.985 432.776 254.946 432.702 253.918C435.689 252.529 439.544 250.568 443.833 247.897C446.799 246.052 450.654 243.625 455.017 239.862C457.559 237.668 466.201 229.887 471.496 218.927C473.085 215.63 473.89 213.054 474.176 212.111C474.441 211.231 475.563 207.362 475.944 202.041C476.305 196.995 475.807 193.115 475.606 191.737C474.96 187.317 473.847 184.105 472.958 181.582ZM257.541 235.569C252.172 230.703 248.285 226.591 244.07 220.315C239.812 213.966 237.239 207.362 237.705 199.613C237.991 194.811 239.261 190.105 240.967 185.579C241.242 188.292 241.814 192.172 243.106 196.666C246.876 209.768 253.94 218.248 259.066 224.258C263.599 229.59 270.938 237.021 281.752 243.773C280.576 244.049 279.231 244.452 277.791 245.035C275.99 245.777 274.486 246.614 273.311 247.399C269.276 244.929 263.631 241.091 257.541 235.569ZM458.777 227.311C452.147 235.378 443.505 240.148 443.505 240.148C440.476 241.823 437.786 242.904 435.816 243.593C441.747 239.173 451.533 230.714 459.359 217.008C467.196 203.281 469.516 190.529 470.3 183.172C471.57 202.157 466.201 218.28 458.777 227.311Z" fill="#DBDBDB"/>
</g>
<g style="mix-blend-mode:multiply">
<path d="M292.098 267.784L288.825 267.392C288.825 267.392 316.35 361.405 320.386 375.164C319.697 375.301 318.977 375.471 318.204 375.683C317.515 375.874 316.869 376.086 316.276 376.298C306.745 349.215 297.149 322.152 287.501 295.111C284.398 286.409 281.284 277.717 278.171 269.014C278.171 269.014 276.889 269.406 276.804 270C276.762 270.307 277.08 270.413 277.016 270.668C276.879 271.261 274.972 271.399 274.972 271.399C274.972 271.399 274.972 272.183 274.972 273.667C273.278 273.932 272.335 274.494 271.784 274.982C271.541 275.194 270.588 276.095 270.588 276.095L311.468 380.591C311.468 380.591 311.733 379.711 311.786 379.573C311.955 379.096 312.654 378.535 315.027 378.185C315.058 377.877 315.154 377.432 315.45 377.008C315.959 376.287 316.742 376.054 318.204 375.694C319.57 375.354 320.767 375.079 321.731 374.877C317.876 360.938 292.098 267.784 292.098 267.784Z" fill="#DBDBDB"/>
</g>
<g style="mix-blend-mode:multiply">
<path d="M432.703 272.003C432.533 271.632 432.364 271.261 432.195 270.901C418.607 305.796 405.029 340.681 391.441 375.577C391.642 375.566 391.971 375.566 392.341 375.704C392.86 375.884 393.178 376.224 393.305 376.383C393.612 376.383 394.015 376.414 394.46 376.563C395.561 376.923 396.186 377.718 396.419 378.057C410.356 343.819 424.304 309.57 438.242 275.331C437.617 274.589 436.516 273.498 434.842 272.724C434.069 272.342 433.328 272.13 432.703 272.003Z" fill="#DBDBDB"/>
</g>
<g style="mix-blend-mode:multiply">
<path d="M418.004 267.731C418.004 267.731 389.239 359.846 384.473 375.11C384.526 375.11 385.585 375.132 385.638 375.132C386.263 375.142 386.803 375.153 386.803 375.153L421.414 268.123C421.552 267.731 418.004 267.731 418.004 267.731Z" fill="#DBDBDB"/>
</g>
<g style="mix-blend-mode:multiply">
<path d="M317.896 441.902L317.885 475.006C317.885 475.006 318.288 473.978 318.415 473.702C318.415 473.702 318.934 472.589 323.223 471.381L322.852 438.997C322.852 438.997 321.295 439.273 320.024 440.036C319.823 440.152 319.686 440.248 317.896 441.902Z" fill="#DBDBDB"/>
</g>
<g style="mix-blend-mode:multiply">
<path d="M390.838 442.506C390.838 442.506 390.605 441.87 390.542 441.722C390.055 440.566 388.116 439.93 388.116 439.93L388.434 472.451C388.434 472.451 389.165 472.875 389.43 473.034C389.822 473.278 390.351 473.702 390.912 474.455C390.87 453.647 390.838 442.506 390.838 442.506Z" fill="#DBDBDB"/>
</g>
<path d="M475.27 218.843C475.27 218.843 471.85 201.692 451.939 207.321C432.028 212.95 432.335 226.507 432.335 226.507C432.335 226.507 411.186 223.221 407.447 235.062C407.447 235.062 398.741 237.245 389.718 237.245C380.695 237.245 381.944 246.276 387.854 245.958C393.764 245.651 535.617 245.958 535.617 245.958C535.617 245.958 547.15 245.651 545.265 241.602C543.39 237.553 534.992 234.754 529.389 235.994C529.389 235.994 528.15 232.412 523.787 231.553C523.787 231.553 530.629 218.918 514.456 213.289C498.284 207.66 483.966 217.306 482.102 220.73C482.123 220.741 481.18 217.889 475.27 218.843Z" fill="white" stroke="black" stroke-width="0.383955" stroke-miterlimit="10" stroke-linecap="round" stroke-linejoin="round"/>
<path d="M374.243 241.994C374.243 241.994 368.449 233.408 353.951 241.146C353.951 241.146 338.615 238.125 334.389 243.202C334.389 243.202 332.335 245.98 336.084 246.711H375.937C375.937 246.711 380.046 245.259 378.468 243.202C376.901 241.156 374.243 241.994 374.243 241.994Z" fill="white" stroke="black" stroke-width="0.383955" stroke-miterlimit="10" stroke-linecap="round" stroke-linejoin="round"/>
<path d="M265.561 389.92C266.143 391.669 265.561 473.301 265.561 473.301" stroke="black" stroke-width="0.383955" stroke-miterlimit="10" stroke-linecap="round" stroke-linejoin="round"/>
<path d="M252.164 483.199V553.17" stroke="black" stroke-width="0.383955" stroke-miterlimit="10" stroke-linecap="round" stroke-linejoin="round"/>
<path d="M268.473 494.859V549.673" stroke="black" stroke-width="0.383955" stroke-miterlimit="10" stroke-linecap="round" stroke-linejoin="round"/>
<path d="M321.481 431.61V498.359" stroke="black" stroke-width="0.383955" stroke-miterlimit="10" stroke-linecap="round" stroke-linejoin="round"/>
<path d="M329.635 483.199V539.009" stroke="black" stroke-width="0.383955" stroke-miterlimit="10" stroke-linecap="round" stroke-linejoin="round"/>
<path d="M383.193 504.665V565.414" stroke="black" stroke-width="0.383955" stroke-miterlimit="10" stroke-linecap="round" stroke-linejoin="round"/>
<path d="M391.971 522.261V549.673" stroke="black" stroke-width="0.383955" stroke-miterlimit="10" stroke-linecap="round" stroke-linejoin="round"/>
<path d="M403.037 492.529V560.751" stroke="black" stroke-width="0.383955" stroke-miterlimit="10" stroke-linecap="round" stroke-linejoin="round"/>
<path d="M433.904 401.463V532.173" stroke="black" stroke-width="0.383955" stroke-miterlimit="10" stroke-linecap="round" stroke-linejoin="round"/>
<g style="mix-blend-mode:multiply">
<path d="M475.264 218.844C474.025 215.388 473.866 215.059 473.866 215.059C472.669 212.653 470.943 210.841 470.943 210.841C470.943 210.841 472.034 215.006 472.129 216.798C472.225 218.759 471.25 220.879 471.25 220.879C473.315 219.936 473.4 219.904 473.496 219.861C475.508 219.013 477.001 218.759 476.98 218.663C476.959 218.568 475.264 218.844 475.264 218.844Z" fill="#E3EEFE"/>
</g>
<g style="mix-blend-mode:multiply">
<path d="M529.393 235.995C529.044 235.2 527.868 232.825 525.316 231.892C524.776 231.702 524.267 231.596 523.801 231.553C524.342 230.546 525.74 227.621 525.125 223.889C524.755 221.631 523.77 219.925 523.007 218.865C521.577 216.893 519.893 215.833 518.961 215.335C519.173 217.89 519.205 221.207 518.57 225.023C518.061 228.087 517.267 230.684 516.473 232.751C517.595 233.217 518.411 233.726 518.94 234.097C518.94 234.097 520.042 234.871 522.192 237.065C522.192 237.065 525.782 236.588 532.581 235.698C531.512 235.793 530.452 235.899 529.393 235.995Z" fill="#E3EEFE"/>
</g>
<g style="mix-blend-mode:multiply">
<path d="M540.52 237.658C540.52 237.658 540.329 239.63 539.852 240.732C539.482 241.58 538.624 242.619 536.474 243.393C485.458 243.276 434.453 243.159 383.437 243.053C383.575 243.467 383.967 244.463 384.973 245.205C386.593 246.414 388.478 245.99 388.754 245.926C437.8 245.947 486.835 245.968 535.881 245.99C537.279 245.979 539.323 245.809 541.653 245.067C543.644 244.431 545.116 243.965 545.413 242.831C545.783 241.4 544.099 239.545 542.754 238.75C542.034 238.315 540.52 237.658 540.52 237.658Z" fill="#E3EEFE"/>
</g>
<g style="mix-blend-mode:multiply">
<path d="M378.289 245.302C378.289 245.302 340.575 245.154 333.861 245.122C333.903 245.302 334.051 245.832 334.539 246.235C335.185 246.775 335.937 246.722 336.085 246.712C349.366 246.712 362.657 246.712 375.938 246.712C377.368 245.853 378.289 245.302 378.289 245.302Z" fill="#E3EEFE"/>
</g>
<path d="M343.487 477.984L344.069 487.322L357.244 482.086L356.397 472.811L343.487 477.984Z" fill="#04C604" stroke="black" stroke-width="0.383955" stroke-miterlimit="10" stroke-linecap="round" stroke-linejoin="round"/>
<path d="M344.067 487.322L350.125 497.085L362.961 492.198L357.242 482.086L344.067 487.322Z" fill="#039503" stroke="black" stroke-width="0.383955" stroke-miterlimit="10" stroke-linecap="round" stroke-linejoin="round"/>
<path d="M356.394 472.811L362.272 483.167L362.96 492.199L357.241 482.086L356.394 472.811Z" fill="#04C604" stroke="black" stroke-width="0.383955" stroke-miterlimit="10" stroke-linecap="round" stroke-linejoin="round"/>
<path d="M329.841 519.718L316.899 526.661L325.075 539.7L338.091 532.523L329.841 519.718Z" fill="#04C604" stroke="black" stroke-width="0.383955" stroke-miterlimit="10" stroke-linecap="round" stroke-linejoin="round"/>
<path d="M316.898 526.661L314.335 531.707L322.32 544.279L325.074 539.7L316.898 526.661Z" fill="#04C604" stroke="black" stroke-width="0.383955" stroke-miterlimit="10" stroke-linecap="round" stroke-linejoin="round"/>
<path d="M322.325 544.278L334.769 537.293L338.094 532.523L325.078 539.699L322.325 544.278Z" fill="#039503" stroke="black" stroke-width="0.383955" stroke-miterlimit="10" stroke-linecap="round" stroke-linejoin="round"/>
<path d="M362.955 517.522L375.241 511.109L383.141 518.932L370.644 525.578L362.955 517.522Z" fill="#04C604" stroke="black" stroke-width="0.383955" stroke-miterlimit="10" stroke-linecap="round" stroke-linejoin="round"/>
<path d="M362.955 517.521L364.999 527.729L372.476 535.965L370.644 525.577L362.955 517.521Z" fill="#04C604" stroke="black" stroke-width="0.383955" stroke-miterlimit="10" stroke-linecap="round" stroke-linejoin="round"/>
<path d="M370.646 525.579L383.143 518.932L384.975 529.321L372.478 535.967L370.646 525.579Z" fill="#039503" stroke="black" stroke-width="0.383955" stroke-miterlimit="10" stroke-linecap="round" stroke-linejoin="round"/>
<path d="M347.355 539.816L341.202 546.834L350.691 552.77L356.738 545.519L347.355 539.816Z" fill="#04C604" stroke="black" stroke-width="0.383955" stroke-miterlimit="10" stroke-linecap="round" stroke-linejoin="round"/>
<path d="M341.203 546.833L339.88 554.01L349.221 559.522L350.693 552.769L341.203 546.833Z" fill="#04C604" stroke="black" stroke-width="0.383955" stroke-miterlimit="10" stroke-linecap="round" stroke-linejoin="round"/>
<path d="M356.739 545.518L355.522 552.26L349.22 559.521L350.692 552.768L356.739 545.518Z" fill="#039503" stroke="black" stroke-width="0.383955" stroke-miterlimit="10" stroke-linecap="round" stroke-linejoin="round"/>
<path d="M333.207 593.02L325.073 602.178L332.55 599.698L340.8 590.465L333.207 593.02Z" fill="#04C604" stroke="black" stroke-width="0.383955" stroke-miterlimit="10" stroke-linecap="round" stroke-linejoin="round"/>
<path d="M325.075 602.178L333.717 612.608L341.353 610.244L332.552 599.697L325.075 602.178Z" fill="#039503" stroke="black" stroke-width="0.383955" stroke-miterlimit="10" stroke-linecap="round" stroke-linejoin="round"/>
<path d="M340.799 590.463L349.642 600.862L341.35 610.243L332.549 599.696L340.799 590.463Z" fill="#04C604" stroke="black" stroke-width="0.383955" stroke-miterlimit="10" stroke-linecap="round" stroke-linejoin="round"/>
<path d="M353.78 580.446L365.789 571.531L375.406 583.096L363.428 592.117L353.78 580.446Z" fill="#FFAA08" stroke="black" stroke-width="0.383955" stroke-miterlimit="10" stroke-linecap="round" stroke-linejoin="round"/>
<path d="M353.779 580.449L355.611 575.774L367.028 567.177L365.789 571.534L353.779 580.449Z" fill="#FFCC6B" stroke="black" stroke-width="0.383955" stroke-miterlimit="10" stroke-linecap="round" stroke-linejoin="round"/>
<path d="M367.027 567.174L376.22 578.283L375.405 583.096L365.788 571.531L367.027 567.174Z" fill="#FFCC6B" stroke="black" stroke-width="0.383955" stroke-miterlimit="10" stroke-linecap="round" stroke-linejoin="round"/>
</svg>
